<svg xmlns="http://www.w3.org/2000/svg" width="194.321" height="50.088" viewBox="0 0 194.321 50.088">
  <g id="white-logo-medcallz" transform="translate(-554.38 -568)">
    <g id="Group_1" data-name="Group 1" transform="translate(554.38 568)">
      <path id="Path_1" data-name="Path 1" d="M6963.382,4330.2a20.885,20.885,0,0,1-26.417,0l-2.965,2.966a25.05,25.05,0,0,0,32.347,0,25.987,25.987,0,0,0,2.955-2.956,25.05,25.05,0,0,0,0-32.347,26.008,26.008,0,0,0-2.955-2.944,25.052,25.052,0,0,0-32.347,0l2.965,2.965a20.852,20.852,0,0,1,26.417,0,21.081,21.081,0,0,1,2.955,2.945,20.884,20.884,0,0,1,0,26.416A21.148,21.148,0,0,1,6963.382,4330.2Z" transform="translate(-6925.135 -4289)" fill="#fff" fill-rule="evenodd"/>
      <path id="Path_2" data-name="Path 2" d="M6099.921,5129a25.05,25.05,0,0,0,0,32.347l2.955-2.966a20.883,20.883,0,0,1-2.343-22.859l3.135,3.134,3.271,3.272,6.606,6.607,2.956,2.955,2.955-2.944,10.122-10.132a12.527,12.527,0,0,1-.328,14.015,12.651,12.651,0,0,1-2.955,2.956l2.986,2.987a17.334,17.334,0,0,0,2.945-2.956,16.687,16.687,0,0,0,.359-20.01,17.382,17.382,0,0,0-2.85-3.05l-2.966,2.965L6116.5,5145.59l-7.663-7.672-2.986-2.977-2.976-2.977Z" transform="translate(-6094 -5120.135)" fill="#fff" fill-rule="evenodd"/>
    </g>
    <g id="Group_2" data-name="Group 2" transform="translate(613.898 579.876)">
      <path id="Path_3" data-name="Path 3" d="M2093.952,10171.588l-.021-9.192-4.506,7.578h-1.6l-4.486-7.39v9H2080v-15.325h2.934l5.741,9.521,5.646-9.521h2.913l.053,15.325Zm20.221-2.849v2.849H2102.3v-15.325h11.588v2.84h-8.052v3.334h7.113v2.756h-7.113v3.547Zm4.211-12.477h6.965a9.775,9.775,0,0,1,4.412.951,7.128,7.128,0,0,1,2.976,2.68,8.158,8.158,0,0,1,0,8.063,7.117,7.117,0,0,1-2.976,2.681,9.787,9.787,0,0,1-4.412.95h-6.965Zm6.786,12.411a5.138,5.138,0,0,0,3.673-1.276,5.079,5.079,0,0,0,0-6.943,5.135,5.135,0,0,0-3.673-1.278h-3.24v9.5Zm20.031,3.178a8.869,8.869,0,0,1-4.243-1.014,7.742,7.742,0,0,1-2.976-2.828,8.215,8.215,0,0,1,0-8.169,7.742,7.742,0,0,1,2.976-2.828,9.556,9.556,0,0,1,7.862-.316,7.141,7.141,0,0,1,2.7,2.016l-2.269,2.1a4.927,4.927,0,0,0-3.863-1.793,5.142,5.142,0,0,0-2.533.622,4.455,4.455,0,0,0-1.741,1.741,5.5,5.5,0,0,0,0,5.087,4.449,4.449,0,0,0,1.741,1.741,5.143,5.143,0,0,0,2.533.623,4.893,4.893,0,0,0,3.863-1.826l2.269,2.111a7.142,7.142,0,0,1-2.712,2.038A9.05,9.05,0,0,1,2145.2,10171.852Zm19.894-3.547h-7.124l-1.351,3.283h-3.641l6.839-15.325h3.5l6.85,15.325h-3.726Zm-1.119-2.69-2.438-5.868-2.427,5.868Zm9.182-9.352h3.546v12.433h7.683v2.893h-11.229Zm14.617,0h3.546v12.433H2199v2.893h-11.229Zm27.028,12.433v2.893h-13.4v-2.3l8.411-10.131h-8.232v-2.894h12.9v2.29l-8.39,10.143Z" transform="translate(-2080 -10156)" fill="#fff" fill-rule="evenodd"/>
      <path id="Path_4" data-name="Path 4" d="M2105.736,12163.275v.782H2102v-4.983h3.63v.781h-2.7v1.287h2.4v.761h-2.4v1.372Zm6.2-4.2-2.174,4.983h-.908l-2.174-4.983h1l1.657,3.843,1.667-3.843Zm4.939,4.2v.782h-3.725v-4.983h3.63v.781h-2.712v1.287h2.406v.761h-2.406v1.372Zm4.981.782-1.023-1.458h-1.309v1.458h-.929v-4.983h2.047a2.88,2.88,0,0,1,1.129.212,1.634,1.634,0,0,1,.992,1.563,1.754,1.754,0,0,1-.274.971,1.664,1.664,0,0,1-.792.6l1.15,1.637Zm-.032-3.209a.872.872,0,0,0-.306-.729,1.383,1.383,0,0,0-.918-.264h-1.076v1.984h1.076a1.434,1.434,0,0,0,.918-.254A.9.9,0,0,0,2121.82,12160.849Zm4.728,1.445v1.764h-.918v-1.742l-1.963-3.241h.993l1.456,2.428,1.467-2.428h.918Zm7.25-3.22a2.881,2.881,0,0,1,1.129.212,1.686,1.686,0,0,1,.729.611,1.764,1.764,0,0,1,.264.951,1.722,1.722,0,0,1-.264.938,1.626,1.626,0,0,1-.729.622,2.864,2.864,0,0,1-1.129.212h-1.129v1.437h-.918v-4.983Zm-.042,2.766a1.384,1.384,0,0,0,.918-.263,1.021,1.021,0,0,0,0-1.458,1.384,1.384,0,0,0-.918-.264h-1.087v1.984Zm6.744,1.066h-2.48l-.5,1.151h-.95l2.237-4.983h.908l2.248,4.983h-.96Zm-.306-.729-.939-2.174-.929,2.174Zm3.852-2.322H2142.4v-.781h4.221v.781h-1.646v4.2h-.929Zm3.958-.781h.928v4.983H2148Zm6.68,4.2v.782h-3.725v-4.983h3.63v.781h-2.712v1.287h2.406v.761h-2.406v1.372Zm6.143-4.2v4.983h-.76l-2.744-3.378v3.378h-.918v-4.983h.759l2.745,3.378v-3.378Zm3.028.781h-1.646v-.781h4.222v.781h-1.646v4.2h-.929Zm3.926,4.255a.579.579,0,0,1-.58-.593.614.614,0,0,1,.169-.433.6.6,0,0,1,.411-.157.6.6,0,0,1,.422.157.6.6,0,0,1-.422,1.025Zm7.926-.835v.782h-3.736v-4.983h3.63v.781h-2.712v1.287h2.407v.761h-2.407v1.372Zm6.2-4.2-2.174,4.983h-.908l-2.174-4.983h1l1.657,3.843,1.667-3.843Zm4.938,4.2v.782h-3.736v-4.983h3.641v.781h-2.712v1.287h2.406v.761h-2.406v1.372Zm4.971.782-1.013-1.458h-1.319v1.458h-.918v-4.983h2.047a2.792,2.792,0,0,1,1.119.212,1.656,1.656,0,0,1,.739.611,1.669,1.669,0,0,1-.8,2.523l1.15,1.637Zm-.021-3.209a.9.9,0,0,0-.306-.729,1.385,1.385,0,0,0-.918-.264h-1.087v1.984h1.087a1.435,1.435,0,0,0,.918-.254A.936.936,0,0,0,2191.791,12160.849Zm4.729,1.445v1.764h-.929v-1.742l-1.953-3.241h.993l1.456,2.428,1.467-2.428h.908Zm5.192-3.22h2.185a3.079,3.079,0,0,1,1.414.317,2.315,2.315,0,0,1,.96.865,2.7,2.7,0,0,1,0,2.618,2.313,2.313,0,0,1-.96.864,3.067,3.067,0,0,1-1.414.318h-2.185Zm2.142,4.2a2.149,2.149,0,0,0,.96-.211,1.539,1.539,0,0,0,.644-.6,1.922,1.922,0,0,0,0-1.792,1.535,1.535,0,0,0-.644-.6,2.149,2.149,0,0,0-.96-.211h-1.213v3.42Zm6.744.854a2.841,2.841,0,0,1-1.372-.338,2.534,2.534,0,0,1,0-4.453,2.831,2.831,0,0,1,1.372-.339,2.8,2.8,0,0,1,1.372.339,2.493,2.493,0,0,1,.96.906,2.676,2.676,0,0,1,0,2.64,2.481,2.481,0,0,1-.96.907A2.812,2.812,0,0,1,2210.6,12164.13Zm0-.812a1.8,1.8,0,0,0,.9-.221,1.631,1.631,0,0,0,.623-.635,1.843,1.843,0,0,0,0-1.792,1.53,1.53,0,0,0-.623-.624,1.7,1.7,0,0,0-.9-.232,1.723,1.723,0,0,0-.9.232,1.534,1.534,0,0,0-.623.624,1.843,1.843,0,0,0,0,1.792,1.635,1.635,0,0,0,.623.635A1.824,1.824,0,0,0,2210.6,12163.317Zm6.648.813a2.828,2.828,0,0,1-1.361-.338,2.464,2.464,0,0,1-1.3-2.228,2.444,2.444,0,0,1,1.309-2.226,2.912,2.912,0,0,1,2.48-.116,2.266,2.266,0,0,1,.855.612l-.6.569a1.739,1.739,0,0,0-1.33-.591,1.8,1.8,0,0,0-.918.232,1.677,1.677,0,0,0-.633.612,1.965,1.965,0,0,0,0,1.815,1.8,1.8,0,0,0,.633.623,1.909,1.909,0,0,0,.918.221,1.736,1.736,0,0,0,1.33-.592l.6.57a2.2,2.2,0,0,1-.865.611A2.708,2.708,0,0,1,2217.247,12164.13Zm4.507-4.274h-1.646v-.781h4.221v.781h-1.646v4.2h-.929Zm6.206,4.274a2.84,2.84,0,0,1-1.372-.338,2.534,2.534,0,0,1,0-4.453,2.947,2.947,0,0,1,2.744,0,2.5,2.5,0,0,1,.96.906,2.676,2.676,0,0,1,0,2.64,2.485,2.485,0,0,1-.96.907A2.812,2.812,0,0,1,2227.959,12164.13Zm0-.812a1.8,1.8,0,0,0,.9-.221,1.739,1.739,0,0,0,.633-.635,1.922,1.922,0,0,0,0-1.792,1.626,1.626,0,0,0-.633-.624,1.827,1.827,0,0,0-1.784,0,1.564,1.564,0,0,0-.633.624,1.925,1.925,0,0,0,0,1.792,1.668,1.668,0,0,0,.633.635A1.787,1.787,0,0,0,2227.959,12163.317Zm7.609.74-1.024-1.458h-1.309v1.458h-.929v-4.983h2.047a2.847,2.847,0,0,1,1.129.212,1.716,1.716,0,0,1,.739.611,1.884,1.884,0,0,1-.021,1.922,1.681,1.681,0,0,1-.781.6l1.14,1.637Zm-.021-3.209a.88.88,0,0,0-.316-.729,1.385,1.385,0,0,0-.918-.264h-1.077v1.984h1.077a1.436,1.436,0,0,0,.918-.254A.911.911,0,0,0,2235.547,12160.849Z" transform="translate(-2101.768 -12137.861)" fill="#fff" fill-rule="evenodd"/>
    </g>
  </g>
</svg>
